PathFileType	4	(X/Y/Z)	RBDS011static.trc
DataRate	CameraRate	NumFrames	NumMarkers	Units	OrigDataRate	OrigDataStartFrame	OrigNumFrames
150.000000	150.000000	4	48	mm	150.000000	18	150
Frame#	Time	L.Ankle			L.Ankle.Medial			L.ASIS			L.GTR			L.Heel.Bottom			L.Heel.Lateral			L.Heel.Top			L.HF			L.Iliac.Crest			L.Knee			L.Knee.Medial			L.MT1			L.MT2			L.MT5			L.PSIS			L.Shank.Bottom.Lateral			L.Shank.Bottom.Medial			L.Shank.Top.Lateral			L.Shank.Top.Medial			L.Thigh.Bottom.Lateral			L.Thigh.Bottom.Medial			L.Thigh.Top.Lateral			L.Thigh.Top.Medial			L.TT			R.Ankle			R.Ankle.Medial			R.ASIS			R.GTR			R.Heel.Bottom			R.Heel.Lateral			R.Heel.Top			R.HF			R.Iliac.Crest			R.Knee			R.Knee.Medial			R.MT1			R.MT2			R.MT5			R.PSIS			R.Shank.Bottom.Lateral			R.Shank.Bottom.Medial			R.Shank.Top.Lateral			R.Shank.Top.Medial			R.Thigh.Bottom.Lateral			R.Thigh.Bottom.Medial			R.Thigh.Top.Lateral			R.Thigh.Top.Medial			R.TT			
		X1	Y1	Z1	X2	Y2	Z2	X3	Y3	Z3	X4	Y4	Z4	X5	Y5	Z5	X6	Y6	Z6	X7	Y7	Z7	X8	Y8	Z8	X9	Y9	Z9	X10	Y10	Z10	X11	Y11	Z11	X12	Y12	Z12	X13	Y13	Z13	X14	Y14	Z14	X15	Y15	Z15	X16	Y16	Z16	X17	Y17	Z17	X18	Y18	Z18	X19	Y19	Z19	X20	Y20	Z20	X21	Y21	Z21	X22	Y22	Z22	X23	Y23	Z23	X24	Y24	Z24	X25	Y25	Z25	X26	Y26	Z26	X27	Y27	Z27	X28	Y28	Z28	X29	Y29	Z29	X30	Y30	Z30	X31	Y31	Z31	X32	Y32	Z32	X33	Y33	Z33	X34	Y34	Z34	X35	Y35	Z35	X36	Y36	Z36	X37	Y37	Z37	X38	Y38	Z38	X39	Y39	Z39	X40	Y40	Z40	X41	Y41	Z41	X42	Y42	Z42	X43	Y43	Z43	X44	Y44	Z44	X45	Y45	Z45	X46	Y46	Z46	X47	Y47	Z47	X48	Y48	Z48	

19	0.12	714.0206909179688	107.4851684570313	1037.293334960938	735.5624389648438	120.8203430175781	1120.556518554688	881.1154174804688	1028.964233398438	1087.656005859375	822.4119873046875	919.937744140625	1033.204711914063	639.0317993164063	42.67591857910156	1083.910278320313	663.4154052734375	57.33404922485352	1044.929809570313	649.682861328125	91.34895324707031	1085.605712890625	751.3343505859375	471.3909912109375	1035.661499023438	810.087158203125	1089.630981445313	1050.24072265625	756.5067749023438	537.7785034179688	1040.901489257813	761.628662109375	517.812255859375	1162.057983398438	864.85888671875	54.44394302368164	1124.969604492188	876.6138305664063	66.28060150146484	1077.3798828125	836.240478515625	49.40594100952148	1009.166076660156	707.0377807617188	1043.44921875	1152.648803710938	707.4459838867188	189.0807189941406	1035.3583984375	672.613037109375	193.1385803222656	1078.009521484375	704.8564453125	269.0870971679688	1026.450561523438	672.4960327148438	273.6793823242188	1069.7177734375	778.5966186523438	646.5277099609375	1026.75	717.5938720703125	647.3069458007813	1066.945434570313	772.6129760742188	756.677978515625	1021.900939941406	718.5645141601563	757.8418579101563	1065.016479492188	813.4618530273438	456.0859985351563	1080.914794921875	714.2303466796875	107.7767639160156	1416.013793945313	736.4923706054688	126.0909652709961	1334.026611328125	864.47314453125	1033.086669921875	1342.595703125	803.8023071289063	924.5261840820313	1397.315795898438	640.05908203125	43.86750793457031	1374.705078125	666.7266235351563	64.30760955810547	1414.714233398438	650.8221435546875	93.74337768554688	1373.691772460938	750.7217407226563	476.6885070800781	1409.015380859375	798.61962890625	1081.853759765625	1368.947998046875	760.2949829101563	539.04345703125	1402.723876953125	764.294677734375	523.3538208007813	1280.506591796875	861.8429565429688	57.79730606079102	1327.235961914063	870.5081787109375	71.46030426025391	1372.960693359375	841.9359130859375	49.22591018676758	1444.377807617188	700.0185546875	1046.974243164063	1254.412719726563	701.3636474609375	182.286865234375	1414.067626953125	669.4440307617188	190.7980041503906	1374.943115234375	705.4652709960938	266.5347900390625	1425.334716796875	671.4132690429688	270.2196044921875	1383.9072265625	759.77197265625	655.208740234375	1407.955810546875	707.5155639648438	655.4169921875	1355.434692382813	755.2113647460938	764.7229614257813	1409.151123046875	706.7977294921875	765.9946899414063	1359.9033203125	812.148681640625	460.3906555175781	1371.783081054688	
20	0.1266666666666667	714.0208740234375	107.4874114990234	1037.291259765625	735.565673828125	120.8185424804688	1120.558837890625	881.1387329101563	1028.970336914063	1087.682495117188	822.3761596679688	919.9214477539063	1033.032348632813	639.0308227539063	42.67955017089844	1083.9208984375	663.4191284179688	57.34584045410156	1044.93701171875	649.6776123046875	91.36380004882813	1085.609008789063	751.3236694335938	471.3978271484375	1035.662841796875	810.1136474609375	1089.628784179688	1050.24609375	756.5173950195313	537.7941284179688	1040.905517578125	761.6311645507813	517.8197631835938	1162.066650390625	864.8551635742188	54.43837738037109	1124.969482421875	876.615478515625	66.28106689453125	1077.374877929688	836.2529296875	49.41782760620117	1009.168334960938	707.04931640625	1043.461547851563	1152.6640625	707.455322265625	189.0829162597656	1035.357421875	672.6099243164063	193.1528778076172	1078.00927734375	704.8593139648438	269.1003112792969	1026.451782226563	672.497314453125	273.6877746582031	1069.72509765625	778.60693359375	646.5311889648438	1026.76611328125	717.6031494140625	647.3130493164063	1066.9560546875	772.6302490234375	756.6837158203125	1021.907409667969	718.5813598632813	757.8468627929688	1065.027465820313	813.4486694335938	456.0982971191406	1080.924926757813	714.2288818359375	107.7792739868164	1416.020263671875	736.493408203125	126.1053466796875	1334.019165039063	864.4705810546875	1033.081665039063	1342.607666015625	803.8002319335938	924.5390625	1397.3359375	640.0513305664063	43.88346099853516	1374.709838867188	666.7365112304688	64.31456756591797	1414.70556640625	650.8242797851563	93.74617004394531	1373.686645507813	750.7520751953125	476.6885681152344	1409.0341796875	798.631591796875	1081.848876953125	1368.96826171875	760.3145751953125	539.0413208007813	1402.73681640625	764.3142700195313	523.3605346679688	1280.518798828125	861.8456420898438	57.79284286499023	1327.231567382813	870.5159912109375	71.46523284912109	1372.973876953125	841.93310546875	49.2271842956543	1444.3876953125	700.0194091796875	1046.978759765625	1254.420288085938	701.3665771484375	182.2944183349609	1414.067504882813	669.4559936523438	190.8019866943359	1374.9326171875	705.469970703125	266.5392150878906	1425.340576171875	671.4326782226563	270.2335510253906	1383.90673828125	759.795166015625	655.2173461914063	1407.985717773438	707.5325317382813	655.42529296875	1355.463256835938	755.2256469726563	764.7340087890625	1409.170043945313	706.8136596679688	765.9971923828125	1359.91845703125	812.1721801757813	460.3940734863281	1371.811401367188	
21	0.1333333333333333	714.0253295898438	107.4828872680664	1037.29150390625	735.564208984375	120.8228454589844	1120.560424804688	881.1492919921875	1028.965209960938	1087.704223632813	822.3831176757813	919.912109375	1033.042358398438	639.0307006835938	42.68291473388672	1083.920288085938	663.41748046875	57.35564041137695	1044.936889648438	649.6797485351563	91.36244964599609	1085.611083984375	751.3399658203125	471.4059448242188	1035.677612304688	810.1394653320313	1089.619995117188	1050.2666015625	756.5216064453125	537.793212890625	1040.914794921875	761.634033203125	517.8120727539063	1162.087768554688	864.8621215820313	54.43915176391602	1124.968994140625	876.6167602539063	66.27988433837891	1077.373901367188	836.2472534179688	49.41875457763672	1009.161926269531	707.0543212890625	1043.45654296875	1152.668579101563	707.4517211914063	189.0870971679688	1035.361572265625	672.6161499023438	193.1505279541016	1078.013427734375	704.8545532226563	269.101318359375	1026.454467773438	672.4985961914063	273.6939697265625	1069.7294921875	778.6254272460938	646.53076171875	1026.78076171875	717.6044311523438	647.3245239257813	1066.971801757813	772.6450805664063	756.6812133789063	1021.915954589844	718.6073608398438	757.8203735351563	1065.028442382813	813.4639282226563	456.1015014648438	1080.927734375	714.2290649414063	107.7863922119141	1416.016723632813	736.4943237304688	126.1098480224609	1334.022216796875	864.4676513671875	1033.086181640625	1342.625366210938	803.8050537109375	924.5394897460938	1397.34814453125	640.0630493164063	43.88183212280273	1374.711059570313	666.727783203125	64.31533813476563	1414.709228515625	650.8287353515625	93.75	1373.689819335938	750.779296875	476.6917419433594	1409.053833007813	798.6295166015625	1081.849731445313	1368.981201171875	760.3397827148438	539.0502319335938	1402.756713867188	764.3460693359375	523.3563842773438	1280.54638671875	861.8465576171875	57.78652954101563	1327.234985351563	870.5130615234375	71.45931243896484	1372.968994140625	841.94482421875	49.22584533691406	1444.38525390625	700.0239868164063	1046.983642578125	1254.427490234375	701.369873046875	182.2931060791016	1414.062377929688	669.458251953125	190.8204040527344	1374.939331054688	705.490478515625	266.5338134765625	1425.341918945313	671.45166015625	270.2386474609375	1383.909912109375	759.8186645507813	655.2101440429688	1407.999877929688	707.552734375	655.4208374023438	1355.478515625	755.2431030273438	764.726806640625	1409.186645507813	706.8253784179688	765.9991455078125	1359.933471679688	812.2056884765625	460.3876342773438	1371.818969726563	
22	0.14	714.0283813476563	107.5005569458008	1037.288940429688	735.5685424804688	120.8234634399414	1120.55517578125	881.168701171875	1028.958862304688	1087.728393554688	822.4450073242188	919.9529418945313	1033.231201171875	639.0323486328125	42.69258499145508	1083.920532226563	663.4248657226563	57.3547477722168	1044.945190429688	649.6771240234375	91.37160491943359	1085.60205078125	751.3358764648438	471.4137878417969	1035.685546875	810.1610107421875	1089.615966796875	1050.272216796875	756.5249633789063	537.7887573242188	1040.927368164063	761.628173828125	517.8169555664063	1162.08984375	864.859619140625	54.44047546386719	1124.96142578125	876.618408203125	66.28033447265625	1077.3828125	836.248291015625	49.41566467285156	1009.174865722656	707.0623168945313	1043.465942382813	1152.673461914063	707.4568481445313	189.0972595214844	1035.374755859375	672.6154174804688	193.156982421875	1078.02587890625	704.8602294921875	269.1080017089844	1026.459838867188	672.5013427734375	273.6925964355469	1069.74462890625	778.6275024414063	646.535888671875	1026.7900390625	717.613525390625	647.3182373046875	1066.974243164063	772.648193359375	756.6797485351563	1021.922180175781	718.6185302734375	757.82080078125	1065.03955078125	813.46337890625	456.1082458496094	1080.939331054688	714.2333984375	107.7873001098633	1416.0166015625	736.5029907226563	126.105842590332	1334.025268554688	864.4608764648438	1033.080932617188	1342.639526367188	803.7974853515625	924.5379028320313	1397.355346679688	640.0672607421875	43.88895034790039	1374.709838867188	666.7373657226563	64.31883239746094	1414.708129882813	650.831787109375	93.75343322753906	1373.686767578125	750.822021484375	476.6911010742188	1409.072631835938	798.6182250976563	1081.85595703125	1368.992309570313	760.3884887695313	539.0556640625	1402.78076171875	764.3897094726563	523.3629760742188	1280.567626953125	861.852783203125	57.79158020019531	1327.23388671875	870.5189819335938	71.45183563232422	1372.971557617188	841.94580078125	49.22373962402344	1444.383666992188	700.0255126953125	1046.99658203125	1254.4287109375	701.3800048828125	182.2975158691406	1414.0634765625	669.4701538085938	190.8213043212891	1374.938720703125	705.5118408203125	266.537109375	1425.3505859375	671.46826171875	270.2470397949219	1383.906127929688	759.8455200195313	655.2181396484375	1408.019653320313	707.576904296875	655.416748046875	1355.508422851563	755.2577514648438	764.730712890625	1409.202026367188	706.84423828125	765.995849609375	1359.9541015625	812.2376098632813	460.3865661621094	1371.85400390625	
